<mxfile host="app.diagrams.net" modified="2020-12-11T13:46:10.108Z" agent="5.0 (Macintosh; Intel Mac OS X 11_0_1) AppleWebKit/537.36 (KHTML, like Gecko) Chrome/87.0.4280.88 Safari/537.36" etag="RLxMSB7xULiJhvLt89Cb" version="13.11.0" type="github">
  <diagram id="t6c14DX2xuqhoiZmQ1ON" name="Page-1">
    <mxGraphModel dx="946" dy="620" grid="1" gridSize="10" guides="1" tooltips="1" connect="1" arrows="1" fold="1" page="1" pageScale="1" pageWidth="827" pageHeight="1169" math="0" shadow="0">
      <root>
        <mxCell id="0" />
        <mxCell id="1" parent="0" />
        <mxCell id="_ZdTmDdr3-ke0jEioW45-1" value="&lt;b&gt;Google &lt;/b&gt;Cloud Platform" style="fillColor=#ffe6cc;strokeColor=#d79b00;shadow=0;fontSize=14;align=left;spacing=10;9E9E9E;verticalAlign=top;spacingTop=-4;fontStyle=0;spacingLeft=40;html=1;" parent="1" vertex="1">
          <mxGeometry x="130" y="150" width="1290" height="610" as="geometry" />
        </mxCell>
        <mxCell id="_ZdTmDdr3-ke0jEioW45-2" value="" style="shape=mxgraph.gcp2.google_cloud_platform;fillColor=#F6F6F6;strokeColor=none;shadow=0;gradientColor=none;" parent="_ZdTmDdr3-ke0jEioW45-1" vertex="1">
          <mxGeometry width="23" height="20" relative="1" as="geometry">
            <mxPoint x="20" y="10" as="offset" />
          </mxGeometry>
        </mxCell>
        <mxCell id="_ZdTmDdr3-ke0jEioW45-4" value="" style="points=[[0,0,0],[0.25,0,0],[0.5,0,0],[0.75,0,0],[1,0,0],[1,0.25,0],[1,0.5,0],[1,0.75,0],[1,1,0],[0.75,1,0],[0.5,1,0],[0.25,1,0],[0,1,0],[0,0.75,0],[0,0.5,0],[0,0.25,0]];rounded=1;absoluteArcSize=1;arcSize=2;html=1;shadow=0;dashed=0;fontSize=12;align=left;verticalAlign=top;spacing=10;spacingTop=-4;fillColor=#dae8fc;strokeColor=#6c8ebf;" parent="_ZdTmDdr3-ke0jEioW45-1" vertex="1">
          <mxGeometry x="110" y="70" width="861.15" height="530" as="geometry" />
        </mxCell>
        <mxCell id="_ZdTmDdr3-ke0jEioW45-36" value="&lt;span style=&quot;color: rgba(0 , 0 , 0 , 0) ; font-family: monospace ; font-size: 0px&quot;&gt;%3CmxGraphModel%3E%3Croot%3E%3CmxCell%20id%3D%220%22%2F%3E%3CmxCell%20id%3D%221%22%20parent%3D%220%22%2F%3E%3CmxCell%20id%3D%222%22%20value%3D%22Private%20Network%22%20style%3D%22points%3D%5B%5B0%2C0%2C0%5D%2C%5B0.25%2C0%2C0%5D%2C%5B0.5%2C0%2C0%5D%2C%5B0.75%2C0%2C0%5D%2C%5B1%2C0%2C0%5D%2C%5B1%2C0.25%2C0%5D%2C%5B1%2C0.5%2C0%5D%2C%5B1%2C0.75%2C0%5D%2C%5B1%2C1%2C0%5D%2C%5B0.75%2C1%2C0%5D%2C%5B0.5%2C1%2C0%5D%2C%5B0.25%2C1%2C0%5D%2C%5B0%2C1%2C0%5D%2C%5B0%2C0.75%2C0%5D%2C%5B0%2C0.5%2C0%5D%2C%5B0%2C0.25%2C0%5D%5D%3Brounded%3D1%3BabsoluteArcSize%3D1%3BarcSize%3D2%3Bhtml%3D1%3Bshadow%3D0%3Bdashed%3D0%3BfontSize%3D12%3Balign%3Dleft%3BverticalAlign%3Dtop%3Bspacing%3D10%3BspacingTop%3D-4%3BfillColor%3D%23dae8fc%3BstrokeColor%3D%236c8ebf%3B%22%20vertex%3D%221%22%20parent%3D%221%22%3E%3CmxGeometry%20x%3D%22280%22%20y%3D%22220%22%20width%3D%22861.15%22%20height%3D%22530%22%20as%3D%22geometry%22%2F%3E%3C%2FmxCell%3E%3CmxCell%20id%3D%223%22%20value%3D%22%26lt%3Bspan%20style%3D%26quot%3Bcolor%3A%20rgb(0%20%2C%200%20%2C%200)%26quot%3B%26gt%3BSubnet%26amp%3Bnbsp%3B%26lt%3B%2Fspan%26gt%3B%22%20style%3D%22rounded%3D1%3BabsoluteArcSize%3D1%3BarcSize%3D2%3Bhtml%3D1%3BstrokeColor%3D%239673a6%3Bshadow%3D0%3Bdashed%3D1%3BstrokeColor%3D%234284F3%3BfontSize%3D12%3Balign%3Dleft%3BverticalAlign%3Dtop%3Bspacing%3D10%3BspacingTop%3D-4%3BfillColor%3D%23e1d5e7%3BdashPattern%3D1%202%3BstrokeWidth%3D2%3B%22%20vertex%3D%221%22%20parent%3D%222%22%3E%3CmxGeometry%20width%3D%22630%22%20height%3D%22360%22%20relative%3D%221%22%20as%3D%22geometry%22%3E%3CmxPoint%20x%3D%2230%22%20y%3D%22110%22%20as%3D%22offset%22%2F%3E%3C%2FmxGeometry%3E%3C%2FmxCell%3E%3CmxCell%20id%3D%224%22%20value%3D%22Bastion%20Host%26lt%3Bbr%26gt%3B%22%20style%3D%22aspect%3Dfixed%3BpointerEvents%3D1%3Bshadow%3D0%3Bdashed%3D0%3Bhtml%3D1%3BstrokeColor%3Dnone%3BlabelPosition%3Dcenter%3BverticalLabelPosition%3Dbottom%3BverticalAlign%3Dtop%3Balign%3Dcenter%3BfillColor%3D%2300188D%3Bshape%3Dmxgraph.mscae.enterprise.secure_virtual_machine%22%20vertex%3D%221%22%20parent%3D%222%22%3E%3CmxGeometry%20x%3D%22346.9864207441161%22%20y%3D%22173%22%20width%3D%2271.50971508462003%22%20height%3D%2254.349621389897855%22%20as%3D%22geometry%22%2F%3E%3C%2FmxCell%3E%3CmxCell%20id%3D%225%22%20value%3D%22Load%20Balancer%26lt%3Bbr%26gt%3B%22%20style%3D%22aspect%3Dfixed%3Bperimeter%3DellipsePerimeter%3Bhtml%3D1%3Balign%3Dcenter%3Bshadow%3D0%3Bdashed%3D0%3BfontColor%3D%234277BB%3BlabelBackgroundColor%3D%23ffffff%3BfontSize%3D12%3BspacingTop%3D3%3Bimage%3Bimage%3Dimg%2Flib%2Fibm%2Fvpc%2FLoadBalancer.svg%3B%22%20vertex%3D%221%22%20parent%3D%222%22%3E%3CmxGeometry%20x%3D%22178.4499729459033%22%20y%3D%22181%22%20width%3D%2247.955548285203996%22%20height%3D%2247.955548285203996%22%20as%3D%22geometry%22%2F%3E%3C%2FmxCell%3E%3CmxCell%20id%3D%226%22%20value%3D%22Kubernetes%26%2310%3BEngine%22%20style%3D%22html%3D1%3BfillColor%3D%235184F3%3BstrokeColor%3Dnone%3BverticalAlign%3Dtop%3BlabelPosition%3Dcenter%3BverticalLabelPosition%3Dbottom%3Balign%3Dcenter%3BspacingTop%3D-6%3BfontSize%3D11%3BfontStyle%3D1%3BfontColor%3D%23999999%3Bshape%3Dmxgraph.gcp2.hexIcon%3BprIcon%3Dcontainer_engine%22%20vertex%3D%221%22%20parent%3D%222%22%3E%3CmxGeometry%20x%3D%22248.83857338567628%22%20y%3D%22300%22%20width%3D%2265.43165674683121%22%20height%3D%2258.5%22%20as%3D%22geometry%22%2F%3E%3C%2FmxCell%3E%3C%2Froot%3E%3C%2FmxGraphModel%3E&lt;/span&gt;" style="verticalLabelPosition=bottom;verticalAlign=top;html=1;shape=mxgraph.basic.rect;fillColor2=none;strokeWidth=1;size=20;indent=5;fillColor=#fff2cc;strokeColor=#d6b656;" parent="_ZdTmDdr3-ke0jEioW45-4" vertex="1">
          <mxGeometry x="120" y="220" width="510" height="220" as="geometry" />
        </mxCell>
        <mxCell id="_ZdTmDdr3-ke0jEioW45-38" value="&lt;span style=&quot;color: rgba(0 , 0 , 0 , 0) ; font-family: monospace ; font-size: 0px&quot;&gt;%3CmxGraphModel%3E%3Croot%3E%3CmxCell%20id%3D%220%22%2F%3E%3CmxCell%20id%3D%221%22%20parent%3D%220%22%2F%3E%3CmxCell%20id%3D%222%22%20value%3D%22Private%20Network%22%20style%3D%22points%3D%5B%5B0%2C0%2C0%5D%2C%5B0.25%2C0%2C0%5D%2C%5B0.5%2C0%2C0%5D%2C%5B0.75%2C0%2C0%5D%2C%5B1%2C0%2C0%5D%2C%5B1%2C0.25%2C0%5D%2C%5B1%2C0.5%2C0%5D%2C%5B1%2C0.75%2C0%5D%2C%5B1%2C1%2C0%5D%2C%5B0.75%2C1%2C0%5D%2C%5B0.5%2C1%2C0%5D%2C%5B0.25%2C1%2C0%5D%2C%5B0%2C1%2C0%5D%2C%5B0%2C0.75%2C0%5D%2C%5B0%2C0.5%2C0%5D%2C%5B0%2C0.25%2C0%5D%5D%3Brounded%3D1%3BabsoluteArcSize%3D1%3BarcSize%3D2%3Bhtml%3D1%3Bshadow%3D0%3Bdashed%3D0%3BfontSize%3D12%3Balign%3Dleft%3BverticalAlign%3Dtop%3Bspacing%3D10%3BspacingTop%3D-4%3BfillColor%3D%23dae8fc%3BstrokeColor%3D%236c8ebf%3B%22%20vertex%3D%221%22%20parent%3D%221%22%3E%3CmxGeometry%20x%3D%22280%22%20y%3D%22220%22%20width%3D%22861.15%22%20height%3D%22530%22%20as%3D%22geometry%22%2F%3E%3C%2FmxCell%3E%3CmxCell%20id%3D%223%22%20value%3D%22%26lt%3Bspan%20style%3D%26quot%3Bcolor%3A%20rgb(0%20%2C%200%20%2C%200)%26quot%3B%26gt%3BSubnet%26amp%3Bnbsp%3B%26lt%3B%2Fspan%26gt%3B%22%20style%3D%22rounded%3D1%3BabsoluteArcSize%3D1%3BarcSize%3D2%3Bhtml%3D1%3BstrokeColor%3D%239673a6%3Bshadow%3D0%3Bdashed%3D1%3BstrokeColor%3D%234284F3%3BfontSize%3D12%3Balign%3Dleft%3BverticalAlign%3Dtop%3Bspacing%3D10%3BspacingTop%3D-4%3BfillColor%3D%23e1d5e7%3BdashPattern%3D1%202%3BstrokeWidth%3D2%3B%22%20vertex%3D%221%22%20parent%3D%222%22%3E%3CmxGeometry%20width%3D%22630%22%20height%3D%22360%22%20relative%3D%221%22%20as%3D%22geometry%22%3E%3CmxPoint%20x%3D%2230%22%20y%3D%22110%22%20as%3D%22offset%22%2F%3E%3C%2FmxGeometry%3E%3C%2FmxCell%3E%3CmxCell%20id%3D%224%22%20value%3D%22Bastion%20Host%26lt%3Bbr%26gt%3B%22%20style%3D%22aspect%3Dfixed%3BpointerEvents%3D1%3Bshadow%3D0%3Bdashed%3D0%3Bhtml%3D1%3BstrokeColor%3Dnone%3BlabelPosition%3Dcenter%3BverticalLabelPosition%3Dbottom%3BverticalAlign%3Dtop%3Balign%3Dcenter%3BfillColor%3D%2300188D%3Bshape%3Dmxgraph.mscae.enterprise.secure_virtual_machine%22%20vertex%3D%221%22%20parent%3D%222%22%3E%3CmxGeometry%20x%3D%22346.9864207441161%22%20y%3D%22173%22%20width%3D%2271.50971508462003%22%20height%3D%2254.349621389897855%22%20as%3D%22geometry%22%2F%3E%3C%2FmxCell%3E%3CmxCell%20id%3D%225%22%20value%3D%22Load%20Balancer%26lt%3Bbr%26gt%3B%22%20style%3D%22aspect%3Dfixed%3Bperimeter%3DellipsePerimeter%3Bhtml%3D1%3Balign%3Dcenter%3Bshadow%3D0%3Bdashed%3D0%3BfontColor%3D%234277BB%3BlabelBackgroundColor%3D%23ffffff%3BfontSize%3D12%3BspacingTop%3D3%3Bimage%3Bimage%3Dimg%2Flib%2Fibm%2Fvpc%2FLoadBalancer.svg%3B%22%20vertex%3D%221%22%20parent%3D%222%22%3E%3CmxGeometry%20x%3D%22178.4499729459033%22%20y%3D%22181%22%20width%3D%2247.955548285203996%22%20height%3D%2247.955548285203996%22%20as%3D%22geometry%22%2F%3E%3C%2FmxCell%3E%3CmxCell%20id%3D%226%22%20value%3D%22Kubernetes%26%2310%3BEngine%22%20style%3D%22html%3D1%3BfillColor%3D%235184F3%3BstrokeColor%3Dnone%3BverticalAlign%3Dtop%3BlabelPosition%3Dcenter%3BverticalLabelPosition%3Dbottom%3Balign%3Dcenter%3BspacingTop%3D-6%3BfontSize%3D11%3BfontStyle%3D1%3BfontColor%3D%23999999%3Bshape%3Dmxgraph.gcp2.hexIcon%3BprIcon%3Dcontainer_engine%22%20vertex%3D%221%22%20parent%3D%222%22%3E%3CmxGeometry%20x%3D%22248.83857338567628%22%20y%3D%22300%22%20width%3D%2265.43165674683121%22%20height%3D%2258.5%22%20as%3D%22geometry%22%2F%3E%3C%2FmxCell%3E%3C%2Froot%3E%3C%2FmxGraphModel%3E&lt;/span&gt;" style="verticalLabelPosition=bottom;verticalAlign=top;html=1;shape=mxgraph.basic.rect;fillColor2=none;strokeWidth=1;size=20;indent=5;" parent="_ZdTmDdr3-ke0jEioW45-4" vertex="1">
          <mxGeometry x="275" y="244.25" width="200" height="90" as="geometry" />
        </mxCell>
        <mxCell id="_ZdTmDdr3-ke0jEioW45-40" value="&lt;span style=&quot;color: rgba(0 , 0 , 0 , 0) ; font-family: monospace ; font-size: 0px&quot;&gt;%3CmxGraphModel%3E%3Croot%3E%3CmxCell%20id%3D%220%22%2F%3E%3CmxCell%20id%3D%221%22%20parent%3D%220%22%2F%3E%3CmxCell%20id%3D%222%22%20value%3D%22Private%20Network%22%20style%3D%22points%3D%5B%5B0%2C0%2C0%5D%2C%5B0.25%2C0%2C0%5D%2C%5B0.5%2C0%2C0%5D%2C%5B0.75%2C0%2C0%5D%2C%5B1%2C0%2C0%5D%2C%5B1%2C0.25%2C0%5D%2C%5B1%2C0.5%2C0%5D%2C%5B1%2C0.75%2C0%5D%2C%5B1%2C1%2C0%5D%2C%5B0.75%2C1%2C0%5D%2C%5B0.5%2C1%2C0%5D%2C%5B0.25%2C1%2C0%5D%2C%5B0%2C1%2C0%5D%2C%5B0%2C0.75%2C0%5D%2C%5B0%2C0.5%2C0%5D%2C%5B0%2C0.25%2C0%5D%5D%3Brounded%3D1%3BabsoluteArcSize%3D1%3BarcSize%3D2%3Bhtml%3D1%3Bshadow%3D0%3Bdashed%3D0%3BfontSize%3D12%3Balign%3Dleft%3BverticalAlign%3Dtop%3Bspacing%3D10%3BspacingTop%3D-4%3BfillColor%3D%23dae8fc%3BstrokeColor%3D%236c8ebf%3B%22%20vertex%3D%221%22%20parent%3D%221%22%3E%3CmxGeometry%20x%3D%22280%22%20y%3D%22220%22%20width%3D%22861.15%22%20height%3D%22530%22%20as%3D%22geometry%22%2F%3E%3C%2FmxCell%3E%3CmxCell%20id%3D%223%22%20value%3D%22%26lt%3Bspan%20style%3D%26quot%3Bcolor%3A%20rgb(0%20%2C%200%20%2C%200)%26quot%3B%26gt%3BSubnet%26amp%3Bnbsp%3B%26lt%3B%2Fspan%26gt%3B%22%20style%3D%22rounded%3D1%3BabsoluteArcSize%3D1%3BarcSize%3D2%3Bhtml%3D1%3BstrokeColor%3D%239673a6%3Bshadow%3D0%3Bdashed%3D1%3BstrokeColor%3D%234284F3%3BfontSize%3D12%3Balign%3Dleft%3BverticalAlign%3Dtop%3Bspacing%3D10%3BspacingTop%3D-4%3BfillColor%3D%23e1d5e7%3BdashPattern%3D1%202%3BstrokeWidth%3D2%3B%22%20vertex%3D%221%22%20parent%3D%222%22%3E%3CmxGeometry%20width%3D%22630%22%20height%3D%22360%22%20relative%3D%221%22%20as%3D%22geometry%22%3E%3CmxPoint%20x%3D%2230%22%20y%3D%22110%22%20as%3D%22offset%22%2F%3E%3C%2FmxGeometry%3E%3C%2FmxCell%3E%3CmxCell%20id%3D%224%22%20value%3D%22Bastion%20Host%26lt%3Bbr%26gt%3B%22%20style%3D%22aspect%3Dfixed%3BpointerEvents%3D1%3Bshadow%3D0%3Bdashed%3D0%3Bhtml%3D1%3BstrokeColor%3Dnone%3BlabelPosition%3Dcenter%3BverticalLabelPosition%3Dbottom%3BverticalAlign%3Dtop%3Balign%3Dcenter%3BfillColor%3D%2300188D%3Bshape%3Dmxgraph.mscae.enterprise.secure_virtual_machine%22%20vertex%3D%221%22%20parent%3D%222%22%3E%3CmxGeometry%20x%3D%22346.9864207441161%22%20y%3D%22173%22%20width%3D%2271.50971508462003%22%20height%3D%2254.349621389897855%22%20as%3D%22geometry%22%2F%3E%3C%2FmxCell%3E%3CmxCell%20id%3D%225%22%20value%3D%22Load%20Balancer%26lt%3Bbr%26gt%3B%22%20style%3D%22aspect%3Dfixed%3Bperimeter%3DellipsePerimeter%3Bhtml%3D1%3Balign%3Dcenter%3Bshadow%3D0%3Bdashed%3D0%3BfontColor%3D%234277BB%3BlabelBackgroundColor%3D%23ffffff%3BfontSize%3D12%3BspacingTop%3D3%3Bimage%3Bimage%3Dimg%2Flib%2Fibm%2Fvpc%2FLoadBalancer.svg%3B%22%20vertex%3D%221%22%20parent%3D%222%22%3E%3CmxGeometry%20x%3D%22178.4499729459033%22%20y%3D%22181%22%20width%3D%2247.955548285203996%22%20height%3D%2247.955548285203996%22%20as%3D%22geometry%22%2F%3E%3C%2FmxCell%3E%3CmxCell%20id%3D%226%22%20value%3D%22Kubernetes%26%2310%3BEngine%22%20style%3D%22html%3D1%3BfillColor%3D%235184F3%3BstrokeColor%3Dnone%3BverticalAlign%3Dtop%3BlabelPosition%3Dcenter%3BverticalLabelPosition%3Dbottom%3Balign%3Dcenter%3BspacingTop%3D-6%3BfontSize%3D11%3BfontStyle%3D1%3BfontColor%3D%23999999%3Bshape%3Dmxgraph.gcp2.hexIcon%3BprIcon%3Dcontainer_engine%22%20vertex%3D%221%22%20parent%3D%222%22%3E%3CmxGeometry%20x%3D%22248.83857338567628%22%20y%3D%22300%22%20width%3D%2265.43165674683121%22%20height%3D%2258.5%22%20as%3D%22geometry%22%2F%3E%3C%2FmxCell%3E%3C%2Froot%3E%3C%2FmxGraphModel%3E&lt;/span&gt;" style="verticalLabelPosition=bottom;verticalAlign=top;html=1;shape=mxgraph.basic.rect;fillColor2=none;strokeWidth=1;size=20;indent=5;" parent="_ZdTmDdr3-ke0jEioW45-4" vertex="1">
          <mxGeometry x="150" y="340" width="160" height="90" as="geometry" />
        </mxCell>
        <mxCell id="_ZdTmDdr3-ke0jEioW45-41" value="&lt;span style=&quot;color: rgba(0 , 0 , 0 , 0) ; font-family: monospace ; font-size: 0px&quot;&gt;%3CmxGraphModel%3E%3Croot%3E%3CmxCell%20id%3D%220%22%2F%3E%3CmxCell%20id%3D%221%22%20parent%3D%220%22%2F%3E%3CmxCell%20id%3D%222%22%20value%3D%22Private%20Network%22%20style%3D%22points%3D%5B%5B0%2C0%2C0%5D%2C%5B0.25%2C0%2C0%5D%2C%5B0.5%2C0%2C0%5D%2C%5B0.75%2C0%2C0%5D%2C%5B1%2C0%2C0%5D%2C%5B1%2C0.25%2C0%5D%2C%5B1%2C0.5%2C0%5D%2C%5B1%2C0.75%2C0%5D%2C%5B1%2C1%2C0%5D%2C%5B0.75%2C1%2C0%5D%2C%5B0.5%2C1%2C0%5D%2C%5B0.25%2C1%2C0%5D%2C%5B0%2C1%2C0%5D%2C%5B0%2C0.75%2C0%5D%2C%5B0%2C0.5%2C0%5D%2C%5B0%2C0.25%2C0%5D%5D%3Brounded%3D1%3BabsoluteArcSize%3D1%3BarcSize%3D2%3Bhtml%3D1%3Bshadow%3D0%3Bdashed%3D0%3BfontSize%3D12%3Balign%3Dleft%3BverticalAlign%3Dtop%3Bspacing%3D10%3BspacingTop%3D-4%3BfillColor%3D%23dae8fc%3BstrokeColor%3D%236c8ebf%3B%22%20vertex%3D%221%22%20parent%3D%221%22%3E%3CmxGeometry%20x%3D%22280%22%20y%3D%22220%22%20width%3D%22861.15%22%20height%3D%22530%22%20as%3D%22geometry%22%2F%3E%3C%2FmxCell%3E%3CmxCell%20id%3D%223%22%20value%3D%22%26lt%3Bspan%20style%3D%26quot%3Bcolor%3A%20rgb(0%20%2C%200%20%2C%200)%26quot%3B%26gt%3BSubnet%26amp%3Bnbsp%3B%26lt%3B%2Fspan%26gt%3B%22%20style%3D%22rounded%3D1%3BabsoluteArcSize%3D1%3BarcSize%3D2%3Bhtml%3D1%3BstrokeColor%3D%239673a6%3Bshadow%3D0%3Bdashed%3D1%3BstrokeColor%3D%234284F3%3BfontSize%3D12%3Balign%3Dleft%3BverticalAlign%3Dtop%3Bspacing%3D10%3BspacingTop%3D-4%3BfillColor%3D%23e1d5e7%3BdashPattern%3D1%202%3BstrokeWidth%3D2%3B%22%20vertex%3D%221%22%20parent%3D%222%22%3E%3CmxGeometry%20width%3D%22630%22%20height%3D%22360%22%20relative%3D%221%22%20as%3D%22geometry%22%3E%3CmxPoint%20x%3D%2230%22%20y%3D%22110%22%20as%3D%22offset%22%2F%3E%3C%2FmxGeometry%3E%3C%2FmxCell%3E%3CmxCell%20id%3D%224%22%20value%3D%22Bastion%20Host%26lt%3Bbr%26gt%3B%22%20style%3D%22aspect%3Dfixed%3BpointerEvents%3D1%3Bshadow%3D0%3Bdashed%3D0%3Bhtml%3D1%3BstrokeColor%3Dnone%3BlabelPosition%3Dcenter%3BverticalLabelPosition%3Dbottom%3BverticalAlign%3Dtop%3Balign%3Dcenter%3BfillColor%3D%2300188D%3Bshape%3Dmxgraph.mscae.enterprise.secure_virtual_machine%22%20vertex%3D%221%22%20parent%3D%222%22%3E%3CmxGeometry%20x%3D%22346.9864207441161%22%20y%3D%22173%22%20width%3D%2271.50971508462003%22%20height%3D%2254.349621389897855%22%20as%3D%22geometry%22%2F%3E%3C%2FmxCell%3E%3CmxCell%20id%3D%225%22%20value%3D%22Load%20Balancer%26lt%3Bbr%26gt%3B%22%20style%3D%22aspect%3Dfixed%3Bperimeter%3DellipsePerimeter%3Bhtml%3D1%3Balign%3Dcenter%3Bshadow%3D0%3Bdashed%3D0%3BfontColor%3D%234277BB%3BlabelBackgroundColor%3D%23ffffff%3BfontSize%3D12%3BspacingTop%3D3%3Bimage%3Bimage%3Dimg%2Flib%2Fibm%2Fvpc%2FLoadBalancer.svg%3B%22%20vertex%3D%221%22%20parent%3D%222%22%3E%3CmxGeometry%20x%3D%22178.4499729459033%22%20y%3D%22181%22%20width%3D%2247.955548285203996%22%20height%3D%2247.955548285203996%22%20as%3D%22geometry%22%2F%3E%3C%2FmxCell%3E%3CmxCell%20id%3D%226%22%20value%3D%22Kubernetes%26%2310%3BEngine%22%20style%3D%22html%3D1%3BfillColor%3D%235184F3%3BstrokeColor%3Dnone%3BverticalAlign%3Dtop%3BlabelPosition%3Dcenter%3BverticalLabelPosition%3Dbottom%3Balign%3Dcenter%3BspacingTop%3D-6%3BfontSize%3D11%3BfontStyle%3D1%3BfontColor%3D%23999999%3Bshape%3Dmxgraph.gcp2.hexIcon%3BprIcon%3Dcontainer_engine%22%20vertex%3D%221%22%20parent%3D%222%22%3E%3CmxGeometry%20x%3D%22248.83857338567628%22%20y%3D%22300%22%20width%3D%2265.43165674683121%22%20height%3D%2258.5%22%20as%3D%22geometry%22%2F%3E%3C%2FmxCell%3E%3C%2Froot%3E%3C%2FmxGraphModel%3E&lt;/span&gt;" style="verticalLabelPosition=bottom;verticalAlign=top;html=1;shape=mxgraph.basic.rect;fillColor2=none;strokeWidth=1;size=20;indent=5;" parent="_ZdTmDdr3-ke0jEioW45-4" vertex="1">
          <mxGeometry x="430" y="340" width="150" height="90" as="geometry" />
        </mxCell>
        <mxCell id="_ZdTmDdr3-ke0jEioW45-21" value="Bastion Host&lt;br&gt;" style="aspect=fixed;pointerEvents=1;shadow=0;dashed=0;html=1;strokeColor=none;labelPosition=center;verticalLabelPosition=bottom;verticalAlign=top;align=center;fillColor=#00188D;shape=mxgraph.mscae.enterprise.secure_virtual_machine" parent="_ZdTmDdr3-ke0jEioW45-4" vertex="1">
          <mxGeometry x="439.9964207441161" y="126.8" width="71.50971508462003" height="54.349621389897855" as="geometry" />
        </mxCell>
        <mxCell id="_ZdTmDdr3-ke0jEioW45-23" value="Load Balancer&lt;br&gt;" style="aspect=fixed;perimeter=ellipsePerimeter;html=1;align=center;shadow=0;dashed=0;fontColor=#4277BB;labelBackgroundColor=#ffffff;fontSize=12;spacingTop=3;image;image=img/lib/ibm/vpc/LoadBalancer.svg;" parent="_ZdTmDdr3-ke0jEioW45-4" vertex="1">
          <mxGeometry x="206.01997294590322" y="130" width="47.955548285203996" height="47.955548285203996" as="geometry" />
        </mxCell>
        <mxCell id="_ZdTmDdr3-ke0jEioW45-24" value="Kubernetes&#xa;Engine" style="html=1;fillColor=#5184F3;strokeColor=none;verticalAlign=top;labelPosition=center;verticalLabelPosition=bottom;align=center;spacingTop=-6;fontSize=11;fontStyle=1;fontColor=#999999;shape=mxgraph.gcp2.hexIcon;prIcon=container_engine" parent="_ZdTmDdr3-ke0jEioW45-4" vertex="1">
          <mxGeometry x="339.99857338567625" y="244.25" width="65.43165674683121" height="58.5" as="geometry" />
        </mxCell>
        <mxCell id="_ZdTmDdr3-ke0jEioW45-48" value="Kubernetes&lt;br&gt;Workers" style="html=1;fillColor=#5184F3;strokeColor=none;verticalAlign=top;labelPosition=center;verticalLabelPosition=bottom;align=center;spacingTop=-6;fontSize=11;fontStyle=1;fontColor=#999999;shape=mxgraph.gcp2.hexIcon;prIcon=container_engine" parent="_ZdTmDdr3-ke0jEioW45-4" vertex="1">
          <mxGeometry x="197.28857338567627" y="340" width="65.43165674683121" height="58.5" as="geometry" />
        </mxCell>
        <mxCell id="_ZdTmDdr3-ke0jEioW45-47" value="Kubernetes&lt;br&gt;Worker&lt;br&gt;" style="html=1;fillColor=#5184F3;strokeColor=none;verticalAlign=top;labelPosition=center;verticalLabelPosition=bottom;align=center;spacingTop=-6;fontSize=11;fontStyle=1;fontColor=#999999;shape=mxgraph.gcp2.hexIcon;prIcon=container_engine" parent="_ZdTmDdr3-ke0jEioW45-4" vertex="1">
          <mxGeometry x="454.5585733856763" y="340" width="65.43165674683121" height="58.5" as="geometry" />
        </mxCell>
        <mxCell id="_ZdTmDdr3-ke0jEioW45-51" value="" style="edgeStyle=orthogonalEdgeStyle;fontSize=12;html=1;endArrow=blockThin;endFill=1;rounded=0;strokeWidth=2;endSize=4;startSize=4;dashed=1;dashPattern=1 3;strokeColor=#4284F3;exitX=1;exitY=0.5;exitDx=0;exitDy=0;entryX=0.358;entryY=0.002;entryDx=0;entryDy=0;entryPerimeter=0;" parent="_ZdTmDdr3-ke0jEioW45-4" source="_ZdTmDdr3-ke0jEioW45-23" target="_ZdTmDdr3-ke0jEioW45-36" edge="1">
          <mxGeometry width="100" relative="1" as="geometry">
            <mxPoint x="290" y="140" as="sourcePoint" />
            <mxPoint x="390" y="140" as="targetPoint" />
            <Array as="points">
              <mxPoint x="303" y="154" />
            </Array>
          </mxGeometry>
        </mxCell>
        <mxCell id="_ZdTmDdr3-ke0jEioW45-54" value="" style="edgeStyle=orthogonalEdgeStyle;fontSize=12;html=1;endArrow=blockThin;endFill=1;rounded=0;strokeWidth=2;endSize=4;startSize=4;dashed=1;dashPattern=1 3;strokeColor=#4284F3;exitX=0.389;exitY=1.049;exitDx=0;exitDy=0;exitPerimeter=0;entryX=0.543;entryY=-0.005;entryDx=0;entryDy=0;entryPerimeter=0;" parent="_ZdTmDdr3-ke0jEioW45-4" source="_ZdTmDdr3-ke0jEioW45-21" target="_ZdTmDdr3-ke0jEioW45-38" edge="1">
          <mxGeometry width="100" relative="1" as="geometry">
            <mxPoint x="290" y="190" as="sourcePoint" />
            <mxPoint x="390" y="190" as="targetPoint" />
          </mxGeometry>
        </mxCell>
        <mxCell id="_ZdTmDdr3-ke0jEioW45-60" value="GKE Cluster" style="text;strokeColor=none;fillColor=none;html=1;fontSize=24;fontStyle=1;verticalAlign=middle;align=center;" parent="_ZdTmDdr3-ke0jEioW45-4" vertex="1">
          <mxGeometry x="144" y="230" width="100" height="40" as="geometry" />
        </mxCell>
        <mxCell id="_ZdTmDdr3-ke0jEioW45-99" value="Compute Engine&lt;br&gt;" style="text;html=1;strokeColor=none;fillColor=none;align=center;verticalAlign=middle;whiteSpace=wrap;rounded=0;" parent="_ZdTmDdr3-ke0jEioW45-4" vertex="1">
          <mxGeometry x="414.55999999999995" y="255" width="40" height="20" as="geometry" />
        </mxCell>
        <mxCell id="_ZdTmDdr3-ke0jEioW45-98" value="Compute Engine&lt;br&gt;" style="text;html=1;strokeColor=none;fillColor=none;align=center;verticalAlign=middle;whiteSpace=wrap;rounded=0;" parent="_ZdTmDdr3-ke0jEioW45-4" vertex="1">
          <mxGeometry x="157.29" y="355" width="40" height="20" as="geometry" />
        </mxCell>
        <mxCell id="_ZdTmDdr3-ke0jEioW45-61" value="Compute Engine&lt;br&gt;" style="text;html=1;strokeColor=none;fillColor=none;align=center;verticalAlign=middle;whiteSpace=wrap;rounded=0;" parent="_ZdTmDdr3-ke0jEioW45-4" vertex="1">
          <mxGeometry x="519.99" y="350" width="40" height="20" as="geometry" />
        </mxCell>
        <mxCell id="_ZdTmDdr3-ke0jEioW45-100" value="API Server Control Plane" style="text;html=1;strokeColor=none;fillColor=none;align=center;verticalAlign=middle;whiteSpace=wrap;rounded=0;" parent="_ZdTmDdr3-ke0jEioW45-4" vertex="1">
          <mxGeometry x="280" y="261" width="60" height="25" as="geometry" />
        </mxCell>
        <mxCell id="_ZdTmDdr3-ke0jEioW45-30" value="Cloud&#xa;Storage" style="html=1;fillColor=#5184F3;strokeColor=none;verticalAlign=top;labelPosition=center;verticalLabelPosition=bottom;align=center;spacingTop=-6;fontSize=11;fontStyle=1;fontColor=#999999;shape=mxgraph.gcp2.hexIcon;prIcon=cloud_storage" parent="_ZdTmDdr3-ke0jEioW45-1" vertex="1">
          <mxGeometry x="1120.00266926079" y="200" width="65.43165674683121" height="58.5" as="geometry" />
        </mxCell>
        <mxCell id="_ZdTmDdr3-ke0jEioW45-29" value="Container&#xa;Registry" style="html=1;fillColor=#5184F3;strokeColor=none;verticalAlign=top;labelPosition=center;verticalLabelPosition=bottom;align=center;spacingTop=-6;fontSize=11;fontStyle=1;fontColor=#999999;shape=mxgraph.gcp2.hexIcon;prIcon=container_registry" parent="_ZdTmDdr3-ke0jEioW45-1" vertex="1">
          <mxGeometry x="1120.00266926079" y="320" width="65.43165674683121" height="58.5" as="geometry" />
        </mxCell>
        <mxCell id="_ZdTmDdr3-ke0jEioW45-3" value="Virtual&#xa;Private Cloud" style="html=1;fillColor=#5184F3;strokeColor=none;verticalAlign=top;labelPosition=center;verticalLabelPosition=bottom;align=center;spacingTop=-6;fontSize=11;fontStyle=1;fontColor=#999999;shape=mxgraph.gcp2.hexIcon;prIcon=virtual_private_cloud" parent="_ZdTmDdr3-ke0jEioW45-1" vertex="1">
          <mxGeometry x="110" y="40" width="80" height="58.5" as="geometry" />
        </mxCell>
        <mxCell id="_ZdTmDdr3-ke0jEioW45-18" value="" style="strokeColor=#dddddd;shadow=1;strokeWidth=1;rounded=1;absoluteArcSize=1;arcSize=2;" parent="1" vertex="1">
          <mxGeometry x="850" y="190" width="140" height="60" as="geometry" />
        </mxCell>
        <mxCell id="_ZdTmDdr3-ke0jEioW45-19" value="&lt;font color=&quot;#000000&quot;&gt;NAT&lt;br&gt;&lt;/font&gt;Cloud Router" style="dashed=0;connectable=0;html=1;fillColor=#5184F3;strokeColor=none;shape=mxgraph.gcp2.hexIcon;prIcon=cloud_router;part=1;labelPosition=right;verticalLabelPosition=middle;align=left;verticalAlign=middle;spacingLeft=5;fontColor=#999999;fontSize=12;" parent="_ZdTmDdr3-ke0jEioW45-18" vertex="1">
          <mxGeometry y="0.5" width="44" height="39" relative="1" as="geometry">
            <mxPoint x="5" y="-19.5" as="offset" />
          </mxGeometry>
        </mxCell>
        <mxCell id="_ZdTmDdr3-ke0jEioW45-28" value="Admin/User" style="html=1;strokeColor=none;fillColor=#0079D6;labelPosition=center;verticalLabelPosition=middle;verticalAlign=top;align=center;fontSize=12;outlineConnect=0;spacingTop=-6;fontColor=#FFFFFF;shape=mxgraph.sitemap.user;" parent="1" vertex="1">
          <mxGeometry x="430" y="20" width="120" height="70" as="geometry" />
        </mxCell>
        <mxCell id="_ZdTmDdr3-ke0jEioW45-49" value="" style="edgeStyle=orthogonalEdgeStyle;fontSize=12;html=1;endArrow=blockThin;endFill=1;rounded=0;strokeWidth=2;endSize=4;startSize=4;dashed=1;dashPattern=1 3;strokeColor=#9E9E9E;" parent="1" source="_ZdTmDdr3-ke0jEioW45-28" target="_ZdTmDdr3-ke0jEioW45-23" edge="1">
          <mxGeometry width="100" relative="1" as="geometry">
            <mxPoint x="510" y="410" as="sourcePoint" />
            <mxPoint x="610" y="410" as="targetPoint" />
            <Array as="points">
              <mxPoint x="450" y="210" />
              <mxPoint x="450" y="210" />
            </Array>
          </mxGeometry>
        </mxCell>
        <mxCell id="_ZdTmDdr3-ke0jEioW45-53" value="" style="edgeStyle=orthogonalEdgeStyle;fontSize=12;html=1;endArrow=blockThin;endFill=1;rounded=0;strokeWidth=2;endSize=4;startSize=4;dashed=1;dashPattern=1 3;strokeColor=#4284F3;entryX=0.366;entryY=0.037;entryDx=0;entryDy=0;entryPerimeter=0;" parent="1" source="_ZdTmDdr3-ke0jEioW45-28" target="_ZdTmDdr3-ke0jEioW45-21" edge="1">
          <mxGeometry width="100" relative="1" as="geometry">
            <mxPoint x="510" y="250" as="sourcePoint" />
            <mxPoint x="610" y="250" as="targetPoint" />
            <Array as="points">
              <mxPoint x="686" y="55" />
            </Array>
          </mxGeometry>
        </mxCell>
        <mxCell id="_ZdTmDdr3-ke0jEioW45-55" value="" style="edgeStyle=orthogonalEdgeStyle;fontSize=12;html=1;endArrow=blockThin;endFill=1;rounded=0;strokeWidth=2;endSize=4;startSize=4;dashed=1;dashPattern=1 3;strokeColor=#4284F3;exitX=1.038;exitY=0.385;exitDx=0;exitDy=0;exitPerimeter=0;entryX=0.5;entryY=1;entryDx=0;entryDy=0;" parent="1" source="_ZdTmDdr3-ke0jEioW45-41" target="_ZdTmDdr3-ke0jEioW45-18" edge="1">
          <mxGeometry width="100" relative="1" as="geometry">
            <mxPoint x="510" y="400" as="sourcePoint" />
            <mxPoint x="610" y="400" as="targetPoint" />
          </mxGeometry>
        </mxCell>
        <mxCell id="_ZdTmDdr3-ke0jEioW45-56" value="" style="outlineConnect=0;dashed=0;verticalLabelPosition=bottom;verticalAlign=top;align=center;html=1;shape=mxgraph.aws3.internet;fillColor=#D2D3D3;gradientColor=none;" parent="1" vertex="1">
          <mxGeometry x="870" y="10.5" width="79.5" height="79.5" as="geometry" />
        </mxCell>
        <mxCell id="_ZdTmDdr3-ke0jEioW45-57" value="" style="edgeStyle=orthogonalEdgeStyle;fontSize=12;html=1;endArrow=blockThin;endFill=1;rounded=0;strokeWidth=2;endSize=4;startSize=4;dashed=1;dashPattern=1 3;strokeColor=#4284F3;exitX=0.5;exitY=0;exitDx=0;exitDy=0;entryX=0.629;entryY=0.814;entryDx=0;entryDy=0;entryPerimeter=0;" parent="1" source="_ZdTmDdr3-ke0jEioW45-18" target="_ZdTmDdr3-ke0jEioW45-56" edge="1">
          <mxGeometry width="100" relative="1" as="geometry">
            <mxPoint x="550" y="230" as="sourcePoint" />
            <mxPoint x="650" y="230" as="targetPoint" />
          </mxGeometry>
        </mxCell>
        <mxCell id="_ZdTmDdr3-ke0jEioW45-58" value="" style="edgeStyle=orthogonalEdgeStyle;fontSize=12;html=1;endArrow=blockThin;endFill=1;rounded=0;strokeWidth=2;endSize=4;startSize=4;dashed=1;dashPattern=1 3;strokeColor=#4284F3;exitX=1.024;exitY=0.719;exitDx=0;exitDy=0;exitPerimeter=0;entryX=0.75;entryY=1;entryDx=0;entryDy=0;" parent="1" source="_ZdTmDdr3-ke0jEioW45-41" target="_ZdTmDdr3-ke0jEioW45-18" edge="1">
          <mxGeometry width="100" relative="1" as="geometry">
            <mxPoint x="550" y="410" as="sourcePoint" />
            <mxPoint x="650" y="410" as="targetPoint" />
          </mxGeometry>
        </mxCell>
        <mxCell id="_ZdTmDdr3-ke0jEioW45-59" value="" style="edgeStyle=orthogonalEdgeStyle;fontSize=12;html=1;endArrow=blockThin;endFill=1;rounded=0;strokeWidth=2;endSize=4;startSize=4;dashed=1;dashPattern=1 3;strokeColor=#4284F3;exitX=1;exitY=0.75;exitDx=0;exitDy=0;entryX=0.5;entryY=0.16;entryDx=0;entryDy=0;entryPerimeter=0;" parent="1" source="_ZdTmDdr3-ke0jEioW45-18" target="_ZdTmDdr3-ke0jEioW45-30" edge="1">
          <mxGeometry width="100" relative="1" as="geometry">
            <mxPoint x="860" y="410" as="sourcePoint" />
            <mxPoint x="960" y="410" as="targetPoint" />
          </mxGeometry>
        </mxCell>
      </root>
    </mxGraphModel>
  </diagram>
</mxfile>
